<?xml version="1.0" encoding="UTF-8"?> <svg xmlns="http://www.w3.org/2000/svg" id="Component_225_1" data-name="Component 225 – 1" width="212.534" height="73.93" viewBox="0 0 212.534 73.93"><path id="Path_5827" data-name="Path 5827" d="M8.274-9.8H1.26V0H3.22V-4.13H6.174v-1.9H3.22V-7.882H8.274Zm2.52-.364A1.118,1.118,0,0,0,9.688-9.058a1.118,1.118,0,0,0,1.106,1.106A1.118,1.118,0,0,0,11.9-9.058,1.118,1.118,0,0,0,10.794-10.164ZM11.76-7.35H9.828V0H11.76Zm8.386,3.206c0-2.072-.84-3.36-2.716-3.36a2.409,2.409,0,0,0-1.722.644v-.49H13.776V0h1.932V-4.018c0-1.274.462-1.666,1.26-1.666s1.246.392,1.246,1.708V0h1.932Zm4.578,2.66c-.826,0-1.12-.462-1.12-.98,0-.588.392-.924,1.12-.924a2.239,2.239,0,0,1,1.344.308v.924A1.581,1.581,0,0,1,24.724-1.484ZM28-4.928C28-6.58,26.8-7.5,25.018-7.5a4.944,4.944,0,0,0-2.758.742L23-5.418a3.627,3.627,0,0,1,2.016-.49.93.93,0,0,1,1.05.938v.364A3.048,3.048,0,0,0,24.654-4.9c-1.666,0-2.982.812-2.982,2.436A2.562,2.562,0,0,0,24.416.154,2.346,2.346,0,0,0,26.068-.49V0H28Zm8.246.784c0-2.072-.84-3.36-2.716-3.36a2.409,2.409,0,0,0-1.722.644v-.49H29.876V0h1.932V-4.018c0-1.274.462-1.666,1.26-1.666s1.246.392,1.246,1.708V0h1.932Zm6.72,1.5a2.119,2.119,0,0,1-1.736.938c-.924,0-1.526-.784-1.526-1.96,0-1.2.6-1.974,1.526-1.974a1.981,1.981,0,0,1,1.68,1.05L44.184-5.88A3.3,3.3,0,0,0,41.272-7.5a3.553,3.553,0,0,0-3.528,3.836A3.551,3.551,0,0,0,41.188.154,3.5,3.5,0,0,0,44.2-1.484ZM48.44-7.5c-1.862,0-3.276,1.582-3.276,3.836,0,2.324,1.344,3.822,3.458,3.822a3.43,3.43,0,0,0,2.632-1.19L49.882-2.184a1.64,1.64,0,0,1-1.26.518A1.414,1.414,0,0,1,47.11-3.052h4.4a6.056,6.056,0,0,0,.028-.616C51.534-5.768,50.4-7.5,48.44-7.5Zm-1.3,3a1.277,1.277,0,0,1,1.2-1.316,1.3,1.3,0,0,1,1.316,1.316Z" transform="translate(161 71)" fill="#008ed3"></path><g id="Group_8765" data-name="Group 8765" transform="translate(-149 -4101)"><rect id="Rectangle_3580" data-name="Rectangle 3580" width="1.126" height="1.124" transform="translate(197.484 4111.11)" fill="#8c8b8b"></rect><rect id="Rectangle_3581" data-name="Rectangle 3581" width="1.122" height="1.126" transform="translate(198.793 4109.813)" fill="#8c8b8b"></rect><path id="Path_3662" data-name="Path 3662" d="M70,1.073a1.076,1.076,0,1,1,1.074,1.079A1.074,1.074,0,0,1,70,1.073" transform="translate(101.928 4101.001)" fill="#c60810"></path><path id="Path_3656" data-name="Path 3656" d="M96.934,32.811c0-.272-1.145-.293-1.32-.046s-.779.144-.832.363.515.17,1.007-.022,1.145-.026,1.145-.3" transform="translate(85.266 4079.204)" fill="#8c8b8b"></path><path id="Path_3657" data-name="Path 3657" d="M98.4,35.145a2.469,2.469,0,0,0-1.64-.1,3.012,3.012,0,0,1-1,.346c-.22,0,.1.269.686.269s.512-.151,1.1-.052,1.026-.265.858-.465" transform="translate(84.65 4077.506)" fill="#8c8b8b"></path><path id="Path_3664" data-name="Path 3664" d="M0,72.415a1.075,1.075,0,1,1,1.074,1.075A1.073,1.073,0,0,1,0,72.415" transform="translate(149 4053.038)" fill="#c60810"></path><path id="Path_3649" data-name="Path 3649" d="M105.346,117.149a3.381,3.381,0,0,1-1.032,2.642,4.551,4.551,0,0,1-3.144.938H95.838V109.622h5.37a4.712,4.712,0,0,1,2.972.748,2.616,2.616,0,0,1,.914,2.146,2.142,2.142,0,0,1-.391,1.383,3.344,3.344,0,0,1-.945.8,2.536,2.536,0,0,1,1.175.908,2.657,2.657,0,0,1,.413,1.546m-3.272-4.221a.979.979,0,0,0-.2-.624.945.945,0,0,0-.763-.254H98.792v1.762h2.316a.97.97,0,0,0,.756-.243.931.931,0,0,0,.209-.641m.256,4.276a.971.971,0,0,0-1.094-1.062H98.792V118.3h2.424a1.067,1.067,0,0,0,.844-.306,1.15,1.15,0,0,0,.27-.787" transform="translate(84.525 4027.227)" fill="#161615"></path><rect id="Rectangle_3528" data-name="Rectangle 3528" width="3.147" height="11.107" transform="translate(191.01 4136.849)" fill="#161615"></rect><path id="Path_3650" data-name="Path 3650" d="M149.886,120.729l-2.652-3.666c-.128-.169-.269-.378-.443-.627s-.338-.5-.5-.743-.318-.49-.46-.713-.254-.392-.327-.521c.022.129.035.3.048.532s.022.477.03.746.02.548.02.834v4.157h-2.951V109.622h2.711l2.444,3.288c.128.165.278.373.451.632s.347.505.518.76.322.493.461.713.241.394.3.506a3.862,3.862,0,0,1-.047-.53c-.012-.228-.024-.473-.037-.744s-.013-.549-.013-.835v-3.79h2.953v11.107Z" transform="translate(53.029 4027.227)" fill="#161615"></path><path id="Path_3651" data-name="Path 3651" d="M185.885,118.24a3.943,3.943,0,0,1-1.035,1.529,4.026,4.026,0,0,1-1.55.867,6.916,6.916,0,0,1-1.943.269,6.794,6.794,0,0,1-1.938-.269,3.9,3.9,0,0,1-1.533-.867,4.041,4.041,0,0,1-1-1.529,6.027,6.027,0,0,1-.369-2.253v-6.362h3.143v6.362a2.752,2.752,0,0,0,.418,1.619,1.516,1.516,0,0,0,1.324.586,1.465,1.465,0,0,0,1.31-.586,2.806,2.806,0,0,0,.41-1.619v-6.362h3.138v6.362a6.105,6.105,0,0,1-.372,2.253" transform="translate(30.25 4027.223)" fill="#161615"></path><path id="Path_3652" data-name="Path 3652" d="M218.355,116.96a3.671,3.671,0,0,1-.341,1.637,2.975,2.975,0,0,1-.954,1.108,4.363,4.363,0,0,1-1.449.634,7.587,7.587,0,0,1-1.841.207,8.476,8.476,0,0,1-2.578-.391,8.6,8.6,0,0,1-2.105-.958l1.491-2.413a5.535,5.535,0,0,0,.708.406,7.212,7.212,0,0,0,.842.355,6.456,6.456,0,0,0,.88.257,4.142,4.142,0,0,0,.823.1,2.733,2.733,0,0,0,1.133-.16.573.573,0,0,0,.315-.554.515.515,0,0,0-.087-.286.949.949,0,0,0-.306-.248,3.146,3.146,0,0,0-.577-.237c-.244-.079-.549-.163-.922-.25a14.65,14.65,0,0,1-1.74-.5,4.078,4.078,0,0,1-1.238-.674,2.552,2.552,0,0,1-.743-.979,3.562,3.562,0,0,1-.245-1.408,3.274,3.274,0,0,1,.31-1.429,3.2,3.2,0,0,1,.88-1.111,4.226,4.226,0,0,1,1.379-.715,6.013,6.013,0,0,1,1.81-.255,8.235,8.235,0,0,1,2.484.334,7.177,7.177,0,0,1,1.943.952l-1.494,2.412a6.751,6.751,0,0,0-1.487-.776,4.686,4.686,0,0,0-1.606-.27,1.511,1.511,0,0,0-.919.19.618.618,0,0,0-.221.491.448.448,0,0,0,.086.275.778.778,0,0,0,.292.225,4.013,4.013,0,0,0,.554.21c.236.067.534.145.891.23a13.467,13.467,0,0,1,1.811.552,4.547,4.547,0,0,1,1.251.715,2.585,2.585,0,0,1,.733.986,3.562,3.562,0,0,1,.238,1.349" transform="translate(8.342 4027.583)" fill="#161615"></path><rect id="Rectangle_3529" data-name="Rectangle 3529" width="1.127" height="1.124" transform="translate(183.123 4127.67)" fill="#8c8b8b"></rect><rect id="Rectangle_3530" data-name="Rectangle 3530" width="1.118" height="1.124" transform="translate(184.434 4127.67)" fill="#8c8b8b"></rect><rect id="Rectangle_3531" data-name="Rectangle 3531" width="1.124" height="1.124" transform="translate(185.734 4127.67)" fill="#8c8b8b"></rect><rect id="Rectangle_3532" data-name="Rectangle 3532" width="1.119" height="1.124" transform="translate(187.043 4127.67)" fill="#8c8b8b"></rect><rect id="Rectangle_3533" data-name="Rectangle 3533" width="1.127" height="1.126" transform="translate(183.123 4126.383)" fill="#8c8b8b"></rect><rect id="Rectangle_3534" data-name="Rectangle 3534" width="1.118" height="1.126" transform="translate(184.434 4126.383)" fill="#8c8b8b"></rect><rect id="Rectangle_3535" data-name="Rectangle 3535" width="1.124" height="1.126" transform="translate(185.734 4126.383)" fill="#8c8b8b"></rect><rect id="Rectangle_3536" data-name="Rectangle 3536" width="1.119" height="1.126" transform="translate(187.043 4126.383)" fill="#8c8b8b"></rect><rect id="Rectangle_3537" data-name="Rectangle 3537" width="1.123" height="1.126" transform="translate(189.654 4126.383)" fill="#8c8b8b"></rect><rect id="Rectangle_3538" data-name="Rectangle 3538" width="1.127" height="1.121" transform="translate(183.123 4125.105)" fill="#8c8b8b"></rect><rect id="Rectangle_3539" data-name="Rectangle 3539" width="1.118" height="1.121" transform="translate(184.434 4125.105)" fill="#8c8b8b"></rect><rect id="Rectangle_3540" data-name="Rectangle 3540" width="1.119" height="1.121" transform="translate(187.043 4125.105)" fill="#8c8b8b"></rect><rect id="Rectangle_3541" data-name="Rectangle 3541" width="1.122" height="1.121" transform="translate(188.348 4125.105)" fill="#8c8b8b"></rect><rect id="Rectangle_3542" data-name="Rectangle 3542" width="1.123" height="1.121" transform="translate(189.654 4125.105)" fill="#8c8b8b"></rect><rect id="Rectangle_3543" data-name="Rectangle 3543" width="1.118" height="1.122" transform="translate(184.434 4123.822)" fill="#8c8b8b"></rect><rect id="Rectangle_3544" data-name="Rectangle 3544" width="1.124" height="1.122" transform="translate(185.734 4123.822)" fill="#8c8b8b"></rect><rect id="Rectangle_3545" data-name="Rectangle 3545" width="1.119" height="1.122" transform="translate(187.043 4123.822)" fill="#8c8b8b"></rect><rect id="Rectangle_3546" data-name="Rectangle 3546" width="1.122" height="1.122" transform="translate(188.348 4123.822)" fill="#8c8b8b"></rect><rect id="Rectangle_3547" data-name="Rectangle 3547" width="1.131" height="1.122" transform="translate(190.955 4123.822)" fill="#8c8b8b"></rect><rect id="Rectangle_3548" data-name="Rectangle 3548" width="1.118" height="1.125" transform="translate(184.434 4122.539)" fill="#8c8b8b"></rect><rect id="Rectangle_3549" data-name="Rectangle 3549" width="1.124" height="1.125" transform="translate(185.734 4122.539)" fill="#8c8b8b"></rect><rect id="Rectangle_3550" data-name="Rectangle 3550" width="1.119" height="1.125" transform="translate(187.043 4122.539)" fill="#8c8b8b"></rect><rect id="Rectangle_3551" data-name="Rectangle 3551" width="1.122" height="1.125" transform="translate(188.348 4122.539)" fill="#8c8b8b"></rect><rect id="Rectangle_3552" data-name="Rectangle 3552" width="1.123" height="1.125" transform="translate(189.654 4122.539)" fill="#8c8b8b"></rect><rect id="Rectangle_3553" data-name="Rectangle 3553" width="1.131" height="1.125" transform="translate(190.955 4122.539)" fill="#8c8b8b"></rect><rect id="Rectangle_3554" data-name="Rectangle 3554" width="1.124" height="1.125" transform="translate(192.262 4122.539)" fill="#8c8b8b"></rect><rect id="Rectangle_3555" data-name="Rectangle 3555" width="1.121" height="1.125" transform="translate(194.879 4122.539)" fill="#8c8b8b"></rect><rect id="Rectangle_3556" data-name="Rectangle 3556" width="1.119" height="1.122" transform="translate(187.043 4121.259)" fill="#8c8b8b"></rect><rect id="Rectangle_3557" data-name="Rectangle 3557" width="1.122" height="1.122" transform="translate(188.348 4121.259)" fill="#8c8b8b"></rect><rect id="Rectangle_3558" data-name="Rectangle 3558" width="1.131" height="1.122" transform="translate(190.955 4121.259)" fill="#8c8b8b"></rect><rect id="Rectangle_3559" data-name="Rectangle 3559" width="1.121" height="1.122" transform="translate(193.57 4121.259)" fill="#8c8b8b"></rect><rect id="Rectangle_3560" data-name="Rectangle 3560" width="1.124" height="1.125" transform="translate(185.734 4119.98)" fill="#8c8b8b"></rect><rect id="Rectangle_3561" data-name="Rectangle 3561" width="1.119" height="1.125" transform="translate(187.043 4119.98)" fill="#8c8b8b"></rect><rect id="Rectangle_3562" data-name="Rectangle 3562" width="1.122" height="1.125" transform="translate(188.348 4119.98)" fill="#8c8b8b"></rect><rect id="Rectangle_3563" data-name="Rectangle 3563" width="1.123" height="1.125" transform="translate(189.654 4119.98)" fill="#8c8b8b"></rect><rect id="Rectangle_3564" data-name="Rectangle 3564" width="1.131" height="1.125" transform="translate(190.955 4119.98)" fill="#8c8b8b"></rect><rect id="Rectangle_3565" data-name="Rectangle 3565" width="1.121" height="1.125" transform="translate(193.57 4119.98)" fill="#8c8b8b"></rect><rect id="Rectangle_3566" data-name="Rectangle 3566" width="1.129" height="1.125" transform="translate(200.096 4119.98)" fill="#8c8b8b"></rect><rect id="Rectangle_3567" data-name="Rectangle 3567" width="1.119" height="1.123" transform="translate(187.043 4118.693)" fill="#8c8b8b"></rect><rect id="Rectangle_3568" data-name="Rectangle 3568" width="1.123" height="1.123" transform="translate(189.654 4118.693)" fill="#8c8b8b"></rect><rect id="Rectangle_3569" data-name="Rectangle 3569" width="1.124" height="1.123" transform="translate(192.262 4118.693)" fill="#8c8b8b"></rect><rect id="Rectangle_3570" data-name="Rectangle 3570" width="1.121" height="1.123" transform="translate(194.879 4118.693)" fill="#8c8b8b"></rect><rect id="Rectangle_3571" data-name="Rectangle 3571" width="1.131" height="1.123" transform="translate(190.955 4117.415)" fill="#8c8b8b"></rect><rect id="Rectangle_3572" data-name="Rectangle 3572" width="1.121" height="1.123" transform="translate(193.57 4117.415)" fill="#8c8b8b"></rect><rect id="Rectangle_3573" data-name="Rectangle 3573" width="1.124" height="1.122" transform="translate(192.262 4116.136)" fill="#8c8b8b"></rect><rect id="Rectangle_3574" data-name="Rectangle 3574" width="1.121" height="1.122" transform="translate(194.879 4116.136)" fill="#8c8b8b"></rect><rect id="Rectangle_3575" data-name="Rectangle 3575" width="1.126" height="1.122" transform="translate(197.484 4116.136)" fill="#8c8b8b"></rect><rect id="Rectangle_3576" data-name="Rectangle 3576" width="1.131" height="1.125" transform="translate(190.955 4114.851)" fill="#8c8b8b"></rect><rect id="Rectangle_3577" data-name="Rectangle 3577" width="1.126" height="1.123" transform="translate(197.484 4113.569)" fill="#8c8b8b"></rect><rect id="Rectangle_3578" data-name="Rectangle 3578" width="1.127" height="1.123" transform="translate(201.398 4113.569)" fill="#8c8b8b"></rect><rect id="Rectangle_3579" data-name="Rectangle 3579" width="1.126" height="1.129" transform="translate(197.484 4112.284)" fill="#8c8b8b"></rect><rect id="Rectangle_3582" data-name="Rectangle 3582" width="2.874" height="0.54" transform="translate(180.07 4125.197)" fill="#161615"></rect><path id="Path_3653" data-name="Path 3653" d="M49.607,50.179h4.818c-1.339,1.5-4.491,4.04-11.631,6.573-12.666,4.5-25.043-.9-17.8-11.192A32.708,32.708,0,0,1,44.482,32.921c1.17-.2,3.128-.317,2.175-.027s-2.74,1.03-2.636,1.3,1.268-.021,1.924-.121.664.369.273.564-.707,0-.464.243.1.416-.3.588-1.466.094-1.833.442.683.337,1.42.044a4.1,4.1,0,0,1,1.712-.412c.8-.047.046.441.438.61s2.375-.22,1.86.1.98.319-.05.615-10.656,1.369-18.042,6.21S22.6,57.928,35.172,55.436c9.16-1.818,12.992-6,14.4-8.132v2.875ZM43.971,36.906c-.637-.072-.587.143-.761.231-.219.109.415.207.908.188s.487-.347-.148-.419M43.5,34.634c-.462-.049-.439.1-1.049.2s-.957.73-.346.662a4.439,4.439,0,0,0,1.42-.323c.537-.218-.026-.535-.026-.535" transform="translate(133.719 4078.923)" fill="#8c8b8b"></path><path id="Path_3654" data-name="Path 3654" d="M55.144,63.02a5.989,5.989,0,1,1,5.987,5.987,5.984,5.984,0,0,1-5.987-5.987" transform="translate(111.934 4062.615)" fill="#f08701"></path><path id="Path_3655" data-name="Path 3655" d="M60.753,63.908a1.173,1.173,0,0,1,2.145-.949,1.165,1.165,0,0,1-.592,1.548,1.177,1.177,0,0,1-1.553-.6" transform="translate(108.252 4059.14)" fill="#fff"></path><path id="Path_3658" data-name="Path 3658" d="M96.5,38.381c-.608.15-.753.222-1.075.3s-.021.319.686.171a9.006,9.006,0,0,1,1.27-.219c.346-.025.293-.343-.123-.37a1.955,1.955,0,0,0-.758.123" transform="translate(84.918 4075.285)" fill="#8c8b8b"></path><path id="Path_3659" data-name="Path 3659" d="M104.43,37.679c-.186-.279-.76-.1-1,.048s-.193.17.219.246.8-.171.785-.294" transform="translate(79.553 4075.772)" fill="#8c8b8b"></path><path id="Path_3660" data-name="Path 3660" d="M104.607,39.635c-.152-.074-1.366.1-1.561.05s-.466.193-.882.193-1.072.028-.83.294,1.3.123,1.76.024a3.578,3.578,0,0,1,1.395-.218c.438.094.179-.327.119-.343" transform="translate(80.889 4074.37)" fill="#8c8b8b"></path><rect id="Rectangle_3583" data-name="Rectangle 3583" width="14.761" height="0.538" transform="translate(151.117 4125.181)" fill="#161615"></rect><rect id="Rectangle_3584" data-name="Rectangle 3584" width="0.535" height="14.763" transform="translate(172.779 4133.275)" fill="#161615"></rect><rect id="Rectangle_3585" data-name="Rectangle 3585" width="0.535" height="14.758" transform="translate(172.779 4103.122)" fill="#161615"></rect><rect id="Rectangle_3586" data-name="Rectangle 3586" width="42.776" height="0.54" transform="translate(190.438 4125.197)" fill="#161615"></rect><path id="Path_3661" data-name="Path 3661" d="M257.126,72.467a1.076,1.076,0,1,1,1.078,1.078,1.077,1.077,0,0,1-1.078-1.078" transform="translate(-23.994 4053.001)" fill="#c60810"></path><path id="Path_3663" data-name="Path 3663" d="M70.036,144.333a1.075,1.075,0,1,1,1.074,1.077,1.073,1.073,0,0,1-1.074-1.077" transform="translate(101.904 4004.685)" fill="#c60810"></path><path id="Path_5828" data-name="Path 5828" d="M3.69-4.28c-1.11-.26-1.41-.4-1.41-.84,0-.31.25-.63,1-.63a2.135,2.135,0,0,1,1.59.72l1.01-.98a3.346,3.346,0,0,0-2.55-1.1c-1.38,0-2.5.78-2.5,2.05,0,1.38.9,1.79,2.19,2.09,1.32.3,1.56.5,1.56.95,0,.53-.39.76-1.22.76a2.268,2.268,0,0,1-1.79-.8l-1.01.9A3.246,3.246,0,0,0,3.28.11c1.91,0,2.75-.9,2.75-2.23C6.03-3.64,4.8-4.02,3.69-4.28Zm7,2.39a1.514,1.514,0,0,1-1.24.67c-.66,0-1.09-.56-1.09-1.4,0-.86.43-1.41,1.09-1.41a1.415,1.415,0,0,1,1.2.75l.91-.92A2.36,2.36,0,0,0,9.48-5.36,2.538,2.538,0,0,0,6.96-2.62,2.536,2.536,0,0,0,9.42.11a2.5,2.5,0,0,0,2.15-1.17ZM17.2-2.96c0-1.48-.6-2.4-1.94-2.4a1.721,1.721,0,0,0-1.23.46V-7.29l-1.38.69V0h1.38V-2.87c0-.91.33-1.19.9-1.19s.89.28.89,1.22V0H17.2Zm3.44-2.4a2.479,2.479,0,0,0-2.37,2.74A2.47,2.47,0,0,0,20.64.11a2.477,2.477,0,0,0,2.38-2.73A2.486,2.486,0,0,0,20.64-5.36Zm0,4.14c-.66,0-.97-.59-.97-1.4s.31-1.41.97-1.41.98.61.98,1.41C21.62-1.89,21.3-1.22,20.64-1.22Zm5.6-4.14a2.479,2.479,0,0,0-2.37,2.74A2.47,2.47,0,0,0,26.24.11a2.477,2.477,0,0,0,2.38-2.73A2.486,2.486,0,0,0,26.24-5.36Zm0,4.14c-.66,0-.97-.59-.97-1.4s.31-1.41.97-1.41.98.61.98,1.41C27.22-1.89,26.9-1.22,26.24-1.22Zm4.93-6.07-1.38.69V0h1.38Zm6.49,1.93a2.479,2.479,0,0,0-2.37,2.74A2.47,2.47,0,0,0,37.66.11a2.477,2.477,0,0,0,2.38-2.73A2.486,2.486,0,0,0,37.66-5.36Zm0,4.14c-.66,0-.97-.59-.97-1.4s.31-1.41.97-1.41.98.61.98,1.41C38.64-1.89,38.32-1.22,37.66-1.22Zm6.06-5.89a2.26,2.26,0,0,0-.87-.15c-.96,0-1.5.4-1.5,1.38v.63h-.63v1.3h.63V0h1.38V-3.95h.89v-1.3h-.89v-.44c0-.29.1-.42.51-.42a1,1,0,0,1,.48.11Zm6.25,4.22.45-1.27c.14-.41.28-.83.35-1.09.07.26.21.68.35,1.09l.45,1.27ZM51.48-7H50.12L47.44,0h1.5l.55-1.56h2.56L52.6,0h1.54Zm6.99,5.11a1.514,1.514,0,0,1-1.24.67c-.66,0-1.09-.56-1.09-1.4,0-.86.43-1.41,1.09-1.41a1.415,1.415,0,0,1,1.2.75l.91-.92a2.36,2.36,0,0,0-2.08-1.16,2.538,2.538,0,0,0-2.52,2.74A2.536,2.536,0,0,0,57.2.11a2.5,2.5,0,0,0,2.15-1.17Zm5.3,0a1.514,1.514,0,0,1-1.24.67c-.66,0-1.09-.56-1.09-1.4,0-.86.43-1.41,1.09-1.41a1.415,1.415,0,0,1,1.2.75l.91-.92a2.36,2.36,0,0,0-2.08-1.16,2.538,2.538,0,0,0-2.52,2.74A2.536,2.536,0,0,0,62.5.11a2.5,2.5,0,0,0,2.15-1.17Zm3.94-3.47a2.479,2.479,0,0,0-2.37,2.74A2.47,2.47,0,0,0,67.71.11a2.477,2.477,0,0,0,2.38-2.73A2.486,2.486,0,0,0,67.71-5.36Zm0,4.14c-.66,0-.97-.59-.97-1.4s.31-1.41.97-1.41.98.61.98,1.41C68.69-1.89,68.37-1.22,67.71-1.22Zm8-4.03H74.33v2.87c0,.91-.33,1.19-.9,1.19s-.89-.28-.89-1.22V-5.25H71.16v2.96c0,1.48.6,2.4,1.94,2.4a1.721,1.721,0,0,0,1.23-.46V0h1.38Zm5.94,2.29c0-1.48-.6-2.4-1.94-2.4a1.721,1.721,0,0,0-1.23.46v-.35H77.1V0h1.38V-2.87c0-.91.33-1.19.9-1.19s.89.28.89,1.22V0h1.38Zm3.64,1.75c-.33,0-.51-.13-.51-.63V-3.95h1.26v-1.3H84.78V-7.29L83.4-6.6v1.35h-.88v1.3h.88v2.48A1.424,1.424,0,0,0,84.8.11a1.837,1.837,0,0,0,1.07-.32l.2-1.4C85.73-1.32,85.54-1.21,85.29-1.21Zm2.86-6.05a.8.8,0,0,0-.79.79.8.8,0,0,0,.79.79.8.8,0,0,0,.79-.79A.8.8,0,0,0,88.15-7.26Zm.69,2.01H87.46V0h1.38Zm5.99,2.29c0-1.48-.6-2.4-1.94-2.4a1.721,1.721,0,0,0-1.23.46v-.35H90.28V0h1.38V-2.87c0-.91.33-1.19.9-1.19s.89.28.89,1.22V0h1.38Zm5.6-2.29H99.05v.3a1.663,1.663,0,0,0-1.11-.41c-1.3,0-2.04,1.1-2.04,2.67,0,1.96.92,2.8,2.04,2.8a1.618,1.618,0,0,0,1.11-.44c0,.81-.29,1.07-1.37,1.22l.49,1.04c1.84-.2,2.26-1.09,2.26-2.82ZM98.2-1.19c-.54,0-.9-.45-.9-1.53,0-.88.29-1.34.82-1.34a1.1,1.1,0,0,1,.93.45v1.98A.967.967,0,0,1,98.2-1.19Z" transform="translate(180 4173)" fill="#008ed3"></path><text id="UNIVERSITY" transform="translate(180.258 4160.204)" fill="#007fcc" font-size="11" font-family="Interstate-Bold, Interstate" font-weight="700" letter-spacing="-0.032em"><tspan x="0" y="0">UNIVERSITY</tspan></text></g><g id="Group_8557" data-name="Group 8557" transform="translate(-117.535 -147.436)"><rect id="Rectangle_60" data-name="Rectangle 60" width="0.383" height="35.379" transform="translate(263.535 183.435)" fill="#161615"></rect></g></svg> 